<svg id="Layer_1" data-name="Layer 1" xmlns="http://www.w3.org/2000/svg" viewBox="0 0 72.47 64.19">
  <defs>
    <style>
      .cls-1 {
        fill: #ff0007;
      }
    </style>
  </defs>
  <g>
    <path class="cls-1" d="M50.1,81.5a4.82,4.82,0,0,1-4.22-2.44L15,25.62a4.88,4.88,0,0,1,4.22-7.31H81a4.88,4.88,0,0,1,4.22,7.31L54.32,79.06A4.82,4.82,0,0,1,50.1,81.5Z" transform="translate(-13.86 -17.81)"/>
    <path d="M81,17.81v1a4.38,4.38,0,0,1,3.79,6.56L53.88,78.81a4.37,4.37,0,0,1-7.57,0L15.46,25.37a4.38,4.38,0,0,1,3.78-6.56H81v-1m0,0H19.24a5.37,5.37,0,0,0-4.65,8.06L45.45,79.31a5.36,5.36,0,0,0,9.3,0L85.6,25.87A5.37,5.37,0,0,0,81,17.81Z" transform="translate(-13.86 -17.81)"/>
  </g>
</svg>
