<svg id="Layer_1" data-name="Layer 1" xmlns="http://www.w3.org/2000/svg" viewBox="0 0 64.19 72.47">
  <defs>
    <style>
      .cls-1 {
        fill: #ff0007;
      }
    </style>
  </defs>
  <g>
    <path class="cls-1" d="M76.81,85.64A4.8,4.8,0,0,1,74.38,85L20.94,54.13a4.87,4.87,0,0,1,0-8.44L74.38,14.83a4.8,4.8,0,0,1,2.43-.66,4.89,4.89,0,0,1,4.88,4.88V80.76a4.84,4.84,0,0,1-1.48,3.51,5,5,0,0,1-3.4,1.37Z" transform="translate(-18 -13.67)"/>
    <path d="M76.81,14.67a4.39,4.39,0,0,1,4.38,4.38V80.76a4.37,4.37,0,0,1-6.56,3.79L21.19,53.69a4.37,4.37,0,0,1,0-7.57L74.63,15.27a4.29,4.29,0,0,1,2.18-.6m0-1a5.36,5.36,0,0,0-2.68.73L20.69,45.26a5.37,5.37,0,0,0,0,9.3L74.13,85.41a5.36,5.36,0,0,0,8.06-4.65V19.05a5.38,5.38,0,0,0-5.38-5.38Z" transform="translate(-18 -13.67)"/>
  </g>
</svg>
