<svg id="Layer_1" data-name="Layer 1" xmlns="http://www.w3.org/2000/svg" viewBox="0 0 72.47 64.19">
  <defs>
    <style>
      .cls-1 {
        fill: #ff0007;
      }
    </style>
  </defs>
  <g>
    <path class="cls-1" d="M19.24,81.5A4.88,4.88,0,0,1,15,74.19L45.88,20.75a4.87,4.87,0,0,1,8.44,0L85.17,74.19A4.88,4.88,0,0,1,81,81.5Z" transform="translate(-13.86 -17.81)"/>
    <path d="M50.1,18.81A4.32,4.32,0,0,1,53.88,21L84.74,74.44A4.38,4.38,0,0,1,81,81H19.24a4.38,4.38,0,0,1-3.78-6.56L46.31,21a4.34,4.34,0,0,1,3.79-2.19m0-1a5.32,5.32,0,0,0-4.65,2.69L14.59,73.94A5.37,5.37,0,0,0,19.24,82H81a5.37,5.37,0,0,0,4.65-8.06L54.75,20.5a5.32,5.32,0,0,0-4.65-2.69Z" transform="translate(-13.86 -17.81)"/>
  </g>
</svg>
