<svg id="Layer_1" data-name="Layer 1" xmlns="http://www.w3.org/2000/svg" viewBox="0 0 64.19 72.47">
  <defs>
    <style>
      .cls-1 {
        fill: #ff0007;
      }
    </style>
  </defs>
  <g>
    <path class="cls-1" d="M29,80a4.89,4.89,0,0,1-4.88-4.88V13.4A4.88,4.88,0,0,1,29,8.53a4.8,4.8,0,0,1,2.43.66L84.9,40a4.87,4.87,0,0,1,0,8.44L31.46,79.33A4.81,4.81,0,0,1,29,80Z" transform="translate(-23.65 -8.03)"/>
    <path d="M29,9a4.35,4.35,0,0,1,2.18.59L84.65,40.48a4.37,4.37,0,0,1,0,7.57L31.21,78.9a4.25,4.25,0,0,1-2.18.59,4.38,4.38,0,0,1-4.38-4.37V13.4A4.3,4.3,0,0,1,26,10.26,4.47,4.47,0,0,1,29,9m0-1a5.38,5.38,0,0,0-5.38,5.37V75.12a5.37,5.37,0,0,0,8.06,4.65L85.15,48.91a5.37,5.37,0,0,0,0-9.3L31.71,8.75A5.35,5.35,0,0,0,29,8Z" transform="translate(-23.65 -8.03)"/>
  </g>
</svg>
